<svg xmlns="http://www.w3.org/2000/svg" width="542" height="494" viewBox="0 0 542 494" fill="none">
<mask id="path-1-outside-1_72_2" maskUnits="userSpaceOnUse" x="171" y="302.653" width="196" height="63" fill="black">
<rect fill="white" x="171" y="302.653" width="196" height="63"/>
<path d="M206.968 341.821H221.496C224.312 338.365 224.568 338.173 225.208 338.173C225.848 338.173 226.168 338.237 229.24 340.541C231.864 342.525 232.056 342.845 232.056 343.421C232.056 344.061 231.928 344.253 229.944 345.981C229.368 349.565 228.856 352.189 227.704 355.005C226.232 358.525 222.328 361.085 217.912 361.085C216.184 361.085 215.48 360.701 215.224 359.613C214.392 356.157 212.984 354.685 208.76 353.277C208.376 353.149 208.44 352.637 208.824 352.637C212.088 352.829 215.096 352.893 216.568 352.829C219.576 352.701 220.088 352.125 220.856 350.397C221.688 348.477 222.136 345.917 222.52 343.101H206.968C207.096 351.229 207.544 359.997 207.608 361.661C207.608 363.389 206.392 364.541 202.424 364.541C199.864 364.541 199.224 363.645 199.224 362.109C199.224 361.213 199.224 359.357 199.48 352.189L199.544 349.821C193.272 356.093 182.648 361.661 172.6 363.453C172.216 363.517 172.024 362.877 172.408 362.749C181.688 359.293 191.224 350.589 195.064 343.101H187L186.616 345.661C186.232 348.029 185.208 348.797 181.816 348.797C179.704 348.797 178.68 348.157 178.68 347.069C178.68 346.749 178.808 346.173 178.872 345.789C179.64 342.141 180.28 338.749 180.728 335.549C181.176 332.413 181.24 331.389 181.304 329.853C187.384 331.837 189.24 332.541 189.752 333.181H199.16L199.096 326.141H185.592C183.992 326.141 181.688 326.269 178.872 326.589L178.232 324.413C181.112 324.733 183.672 324.861 185.592 324.861H217.272C220.152 321.661 220.472 321.533 221.048 321.533C221.688 321.533 222.136 321.661 224.76 323.645C227.32 325.565 227.576 325.949 227.576 326.525C227.576 327.101 227.448 327.293 225.912 328.573V329.853C225.912 331.581 226.168 333.181 226.168 334.525C226.168 336.253 224.824 337.661 220.856 337.661C218.68 337.661 218.104 337.213 218.104 335.421V334.461H206.84L206.968 341.821ZM199.224 334.461H189.624C189.368 334.717 188.92 334.973 188.152 335.357C187.896 337.277 187.576 339.453 187.256 341.821H199.288L199.224 334.461ZM206.712 327.677L206.776 333.181H218.104V326.141H208.056C207.992 326.653 207.544 327.037 206.712 327.677ZM210.808 312.701H221.688C225.848 307.581 226.04 307.325 226.68 307.325C227.384 307.325 227.768 307.517 231.224 310.845C232.952 312.509 233.208 312.829 233.208 313.341C233.208 313.661 232.952 313.981 232.504 313.981H213.432C218.232 314.941 220.28 316.925 220.28 319.549C220.28 321.597 218.168 323.389 216.12 323.389C214.008 323.389 212.792 322.045 212.856 319.805C212.92 316.605 212.408 314.941 211.256 313.981H209.848C206.52 318.013 202.104 321.853 198.008 324.029C197.688 324.221 197.24 323.965 197.496 323.645C199.288 321.469 201.08 318.141 202.616 313.981H188.792C194.232 315.005 196.28 317.245 196.28 319.997C196.28 322.109 194.552 323.773 192.312 323.773C190.136 323.773 188.92 322.429 189.112 320.061C189.304 317.437 188.6 314.941 186.936 313.981H185.4C181.752 318.973 176.76 324.093 172.856 326.461C172.536 326.653 172.152 326.333 172.408 326.013C175.288 322.429 178.68 314.493 180.216 307.069C180.408 306.301 180.6 305.149 180.664 304.125C190.584 306.045 191.16 306.365 191.16 307.325C191.16 308.093 190.712 308.413 188.664 308.861C188.024 310.077 187.192 311.357 186.296 312.701H193.656C197.304 308.157 197.56 307.965 198.072 307.965C198.648 307.965 198.968 308.093 201.912 310.845C202.552 311.421 203 311.869 203.256 312.125C203.64 310.973 204.024 309.821 204.344 308.541C204.856 306.685 205.048 305.469 205.176 304.189C214.712 305.853 215.864 306.365 215.864 307.325C215.864 308.221 215.416 308.605 213.176 309.181C212.536 310.333 211.704 311.549 210.808 312.701ZM262.889 315.901L258.281 316.413C257.705 316.413 257.577 316.221 257.577 315.645C257.577 315.389 257.705 315.197 258.281 315.069C264.041 313.725 270.185 311.677 274.601 309.885C275.241 309.885 275.561 310.141 275.561 310.653L275.433 325.821V350.781C275.433 355.453 275.817 356.349 282.345 356.669C282.985 356.669 283.049 356.733 283.049 357.309C283.049 357.821 282.985 357.885 282.345 357.885C279.401 357.757 274.473 357.693 271.081 357.693C267.561 357.693 263.081 357.757 260.073 357.885C259.497 357.885 259.433 357.821 259.433 357.309C259.433 356.733 259.497 356.669 260.073 356.669C266.153 356.349 266.857 355.453 266.857 350.781V318.589C266.857 316.925 265.897 315.837 264.361 315.837C263.849 315.837 263.337 315.837 262.889 315.901ZM333.599 323.453H340.767C343.327 320.317 343.519 320.253 344.159 320.253C344.799 320.253 345.055 320.317 347.679 322.365C350.175 324.349 350.303 324.605 350.303 325.053C350.303 325.565 350.239 325.757 348.959 326.909V331.709C348.959 338.685 349.215 342.653 349.215 343.805C349.215 345.597 347.487 346.429 344.031 346.429C341.663 346.429 341.087 345.917 341.087 344.253V342.589H332.767V346.109C332.767 347.773 331.615 348.669 327.647 348.669C325.407 348.669 325.151 348.285 325.151 346.429C325.151 345.341 325.535 339.901 325.535 330.621C325.535 325.373 325.535 324.157 325.343 320.765C331.359 322.109 333.087 322.813 333.599 323.453ZM332.767 341.309H341.087V324.733H333.471C333.343 324.989 333.087 325.245 332.767 325.565V341.309ZM321.503 310.205H353.439C357.087 306.173 357.279 305.981 357.983 305.981C358.687 305.981 359.071 306.173 362.079 308.541C364.831 310.717 365.215 311.293 365.215 311.933C365.215 312.573 364.959 313.021 363.103 314.301V328.253C363.103 345.405 363.807 356.989 363.807 359.549C363.807 361.469 361.311 362.365 358.047 362.365C355.487 362.365 354.783 362.173 354.783 359.933V357.181H319.775V359.677C319.775 361.597 317.791 362.429 313.823 362.429C311.583 362.429 311.199 362.045 311.199 360.061C311.199 357.309 311.839 347.517 311.839 330.429C311.839 322.045 311.903 313.661 311.519 307.069C319.583 308.861 321.183 309.501 321.503 310.205ZM319.775 355.901H354.783V311.485H321.055C320.799 311.741 320.351 311.933 319.775 312.189V355.901Z"/>
</mask>



<circle cx="271" cy="188.653" r="82" stroke="white" stroke-width="10"/>

<path d="M327 111.653C327 142.619 302.113 167.653 271.5 167.653C240.887 167.653 216 142.619 216 111.653C216 80.6858 240.887 55.6526 271.5 55.6526C302.113 55.6526 327 80.6858 327 111.653Z" stroke="white" stroke-width="10"/>
<circle cx="271" cy="188.653" r="82" stroke="white" stroke-width="10"/>
<path d="M400 303.153C400 374.691 342.227 432.653 271 432.653C199.773 432.653 142 374.691 142 303.153C142 231.614 199.773 173.653 271 173.653C342.227 173.653 400 231.614 400 303.153Z" stroke="white" stroke-width="10"/>
<path d="M339 120.211C354.853 119.715 384.537 105.908 383.938 54.6526C384.548 106.802 414.646 120.211 430 120.211C415.395 120.211 383.938 140.698 383.938 184.653C383.938 139.953 354.604 120.956 339 120.211Z" stroke="white" stroke-width="5"/>
<path d="M402 173.492C411.756 173.19 430.023 164.8 429.654 133.653C430.029 165.343 448.551 173.492 458 173.492C449.012 173.492 429.654 185.942 429.654 212.653C429.654 185.489 411.602 173.945 402 173.492Z" stroke="white" stroke-width="5"/>
<line x1="271" y1="9.71138" x2="186.704" y2="492.364" stroke="white" stroke-width="10"/>
<line x1="355.296" y1="492.514" x2="270" y2="10.6075" stroke="white" stroke-width="10"/>
<path d="M203.069 104.596L338.092 103.85" stroke="white" stroke-width="10" stroke-linecap="round"/>
<path d="M183.927 173.117L358.487 172.345" stroke="white" stroke-width="21" stroke-linecap="round"/>
<path d="M136.93 284.309L405.485 284.269" stroke="white" stroke-width="33" stroke-linecap="round"/>
<line y1="486.153" x2="542" y2="486.153" stroke="white" stroke-width="15"/>
<line x1="211.548" y1="72.4602" x2="178.148" y2="60.3503" stroke="white" stroke-width="5"/>
<line x1="187.231" y1="6.25866" x2="202.918" y2="26.7092" stroke="white" stroke-width="8"/>
<line x1="185.103" y1="16.5227" x2="198.595" y2="6.70588" stroke="white" stroke-width="6"/>
<rect x="205.828" y="75.6205" width="55" height="11" transform="rotate(-37.1324 205.828 75.6205)" fill="white" stroke="white"/>
<path d="M179.262 61.2421C175.389 54.3912 178.06 42.2975 189.923 43.386C187.159 28.9045 196.083 25.4856 204.91 29.1604C203.348 20.8479 212.459 11.359 223.665 19.5636C221.41 10.3366 236.151 5.5056 242.244 13.5531" stroke="white" stroke-width="5"/>
<line x1="227.052" y1="58.9233" x2="204.113" y2="28.628" stroke="white" stroke-width="5"/>
<line x1="219.195" y1="66.1645" x2="188.77" y2="43.3739" stroke="white" stroke-width="5"/>
<line x1="235.832" y1="54.6064" x2="221.916" y2="17.5711" stroke="white" stroke-width="5"/>
<line x1="244.982" y1="47.0147" x2="241.714" y2="12.0887" stroke="white" stroke-width="5"/>
</svg>