<?xml version="1.0" encoding="utf-8"?>
<!DOCTYPE svg PUBLIC "-//W3C//DTD SVG 1.0//EN" "http://www.w3.org/TR/2001/REC-SVG-20010904/DTD/svg10.dtd">
<svg version="1.0" xmlns="http://www.w3.org/2000/svg" width="630px" height="630px" viewBox="0 0 630 630" preserveAspectRatio="xMidYMid meet">
 <g fill="#ff353a">
  <path d="M242 577.5 c-0.8 -0.2 -5.5 -0.9 -10.5 -1.5 -17.6 -2.4 -38 -9.1 -58.4 -19 -57.7 -28.3 -100.9 -81.7 -117.1 -145.2 -5.8 -22.4 -8.3 -51.9 -6.9 -79.3 2.4 -46.2 15.1 -76.4 44.2 -104.7 10.1 -9.9 11.3 -10.8 14.8 -10.8 3.7 0 3.9 0.2 3.9 3.1 0 1.6 -1.3 8.3 -2.9 14.7 -7.7 30.5 -10.6 55.2 -9.8 82.7 1.1 37.1 8.4 67.7 23.7 99 34.2 69.9 104.3 112.8 184 112.7 44.3 -0.1 81.9 -9.9 108.7 -28.4 8.4 -5.8 21.1 -18.8 26.6 -27.1 7.5 -11.2 13 -26.5 14.3 -39.2 2 -19 -13.9 -57.1 -44.2 -106.1 -9.1 -14.7 -9.4 -15.1 -12.4 -14.6 -1.6 0.2 -3 0.8 -3 1.2 0 0.4 2.7 7.6 5.9 16.1 12.6 32.5 17.1 54.9 17.1 84.6 0 20.2 -2.3 31 -10.1 46.7 -11.1 22.3 -32.9 42.3 -56.5 51.6 -23.5 9.4 -47.5 10.4 -77.1 3.5 -24.2 -5.7 -43.7 -15.1 -69 -33.3 -9.4 -6.7 -10.3 -7.6 -10.3 -10.5 0 -3.2 0.1 -3.2 12.1 -7.6 68.5 -24.8 122.2 -77.6 143.3 -140.9 2.5 -7.7 4.6 -14.8 4.6 -15.9 0 -1.5 -1.5 -2.8 -5.4 -4.7 -3.4 -1.7 -7.9 -5.3 -12 -9.6 -3.6 -3.9 -7 -7 -7.6 -7 -2 0 -23.5 10.1 -33.1 15.5 -23.9 13.5 -44 28.6 -63.8 47.9 -25.2 24.6 -48.2 54.3 -62.6 81 -4.5 8.2 -4.8 8.6 -8.1 8.6 -3 0 -3.9 -0.7 -7.9 -6.1 -13.3 -18.1 -25.3 -45.5 -32.1 -73.4 -3.4 -14 -3.2 -18.7 1.2 -29.3 19.9 -48 59.4 -80 110.4 -89.4 20 -3.7 63.5 -2.7 81.5 1.8 l2.6 0.6 -0.3 -8.8 -0.3 -8.9 -10.5 -4.7 c-18.1 -8.1 -38.2 -14.2 -57 -17.3 -38.9 -6.3 -74.8 9 -98.2 42 -6.2 8.6 -14.7 25.8 -19.3 38.9 -5.2 14.7 -9.5 30.7 -9.5 35.3 0 3.1 -0.2 3.3 -3.4 3.3 l-3.4 0 -0.8 -6.7 c-4.3 -39 10.8 -140.9 28.6 -192.8 5.2 -15.4 16.4 -38.1 23.1 -46.9 10.8 -14.2 20.9 -19.6 36.5 -19.6 17.6 0 32.7 4.7 51.5 16.1 l10 6 8.3 -8.3 c14.3 -14.4 26 -19.6 45.6 -20.5 19.1 -0.9 30.4 3.4 44.4 16.7 20.9 20 33.5 51.2 38.1 94.9 0.8 7.5 1.5 18.9 1.5 25.3 l0 11.7 5.3 3.4 c7.4 4.8 14.9 13.6 20.2 23.7 l4.4 8.7 21.8 0.6 c41.5 1.2 67.4 6.7 85.9 18.2 15.2 9.5 22.4 22.3 22.4 39.9 0 13.6 -8.2 28.6 -22.6 41.5 l-5.5 4.8 6.3 4.6 c8 5.7 20.2 18.3 25.7 26.6 9.1 13.5 12.5 24.3 12.4 39.7 -0.1 17.4 -3.6 27 -13.2 36.4 -10.3 10.1 -26.8 16 -50.8 18 -7 0.6 -12.8 1.2 -12.9 1.3 0 0.1 -0.8 3.3 -1.7 7 -7.3 30.1 -37 52.6 -81.3 61.6 -15.2 3.1 -25.3 4.2 -44.9 4.8 l-18 0.6 -6.5 6.2 c-15.3 14.6 -35.5 24 -60.5 28 -7.9 1.3 -44.3 2 -49.5 1z m284.2 -140.6 c6.7 -1.5 13.2 -6 16.2 -11.2 2.5 -4.2 2.6 -4.6 1.2 -8.5 -5.2 -14.6 -22.8 -30.3 -48.5 -43.1 -16.9 -8.5 -16.1 -10.3 -7.5 15.1 10.8 32.2 16.3 42.7 24.9 48 3.1 1.9 3.9 1.8 13.7 -0.3z m-7.2 -116.9 c4.5 -2.3 6.4 -4.5 9 -10.3 5.5 -12.3 3.3 -19.5 -7.3 -24.6 -10.1 -4.9 -19.7 -6.4 -40.2 -6.5 -19.9 0 -23.5 0.5 -23.5 3.3 0 1 1.6 5 3.5 8.9 4.7 9.4 14.4 18.4 26.4 24.6 14.5 7.5 23.7 8.8 32.1 4.6z m-168.5 -169.2 c-3.6 -24.5 -12.7 -52.9 -20.8 -65.1 -5.8 -8.5 -7.1 -8.5 -15.5 0 -6.2 6.1 -14.3 16.9 -15.8 20.7 -0.9 2.3 28.8 39.5 45.1 56.5 l8 8.4 0.3 -4.8 c0.2 -2.6 -0.4 -9.7 -1.3 -15.7z m-159.5 -3.8 c14.6 -7.3 30.1 -11 50.2 -11.9 l13.8 -0.6 -6.3 -10 c-16.6 -26.5 -34.8 -44.5 -45.1 -44.5 -8.1 0 -16 10.2 -22 28.5 -3.1 9.4 -7.1 30.4 -8.2 42.3 l-0.7 8.4 6.4 -4.7 c3.5 -2.6 8.9 -6 11.9 -7.5z"/>
  <path d="M437 206.1 c0 -1.5 1.7 -6.6 3.9 -11.2 10.3 -22.5 15.3 -48.8 13.1 -68.8 -2 -18 -8.3 -37 -17 -50.8 -2.3 -3.7 -4 -7.7 -4 -9.4 0 -2.7 0.3 -2.9 3.5 -2.9 2 0 6.4 1.5 10.3 3.4 22 11.1 51.1 15.8 74.7 12.2 13.3 -2.1 30.9 -7.8 43.3 -14 5.7 -2.9 10.5 -4.6 12.7 -4.6 3.3 0 3.5 0.2 3.5 3.3 0 2.3 -2.1 6.6 -7.5 15.2 -10.8 17.2 -16.4 33.2 -16.5 47.5 0 13.2 5.5 36.5 13.6 57.5 2.6 6.6 4.9 13.7 5.2 15.9 l0.4 3.8 -4.8 -0.4 c-2.9 -0.3 -9.6 -2.6 -16.6 -5.7 -25.1 -11.2 -47.5 -14.2 -67.3 -9.2 -11.9 3.1 -24.6 8.7 -35.5 15.5 -10.4 6.6 -15 7.5 -15 2.7z"/>
 </g>
 
</svg>